<?xml version="1.0" encoding="UTF-8"?>
<svg id="Capa_1" data-name="Capa 1" xmlns="http://www.w3.org/2000/svg" xmlns:xlink="http://www.w3.org/1999/xlink" viewBox="0 0 22 19">
  <defs>
    <linearGradient id="Degradado_sin_nombre_4" data-name="Degradado sin nombre 4" x1="4.28" y1="9.74" x2="17.84" y2="9.74" gradientUnits="userSpaceOnUse">
      <stop offset="0" stop-color="#464b4d"/>
      <stop offset="1" stop-color="#1a1d1e"/>
    </linearGradient>
  </defs>
  <path class="cls-1" d="M11.06,2.96c-3.74,0-6.78,3.04-6.78,6.78s3.04,6.78,6.78,6.78,6.78-3.04,6.78-6.78-3.04-6.78-6.78-6.78ZM10.56,6.36c-.53-.02-1.01-.09-1.45-.17.44-.96,1.01-1.55,1.45-1.88v2.05ZM10.56,7.35v1.89h-2.11c.03-.81.15-1.51.32-2.1.53.11,1.13.19,1.79.21ZM10.56,10.24v1.97c-.55.03-1.13.11-1.74.23-.19-.61-.32-1.34-.36-2.2h2.11ZM10.56,13.2v1.88c-.41-.31-.94-.85-1.37-1.71.48-.09.94-.14,1.37-.17ZM11.56,13.18c.53.02,1.01.07,1.44.15-.45.93-1.01,1.48-1.44,1.79v-1.94ZM11.56,12.19v-1.95h2.16c-.04.84-.17,1.55-.35,2.15-.53-.11-1.14-.18-1.81-.2ZM11.56,9.24v-1.89c.58-.03,1.19-.08,1.84-.22.17.59.28,1.29.32,2.11h-2.16ZM11.56,6.35v-2.07c.44.32,1.03.9,1.49,1.89-.52.1-1.02.15-1.49.18ZM13.05,4.32c.77.28,1.46.72,2.04,1.29-.36.13-.71.25-1.05.34-.29-.68-.63-1.21-.99-1.63ZM8.12,5.95c-.43-.13-.78-.28-1.04-.4.58-.55,1.28-.99,2.05-1.26-.36.42-.72.97-1.01,1.66ZM7.79,6.89c-.19.67-.31,1.45-.35,2.35h-2.15c.09-1.08.49-2.08,1.1-2.91.3.16.78.36,1.4.56ZM7.45,10.24c.04.94.18,1.75.39,2.44-.46.13-.94.29-1.43.49-.62-.83-1.01-1.83-1.11-2.92h2.15ZM8.19,13.61c.31.68.68,1.21,1.05,1.61-.8-.26-1.52-.7-2.12-1.26.36-.13.72-.25,1.07-.35ZM13.99,13.57c.42.13.76.26,1.01.38-.58.55-1.28.98-2.06,1.24.37-.41.74-.94,1.04-1.63ZM14.33,12.63c.2-.68.34-1.47.38-2.39h2.1c-.09,1.09-.5,2.1-1.12,2.94-.3-.15-.75-.36-1.36-.54ZM14.71,9.24c-.04-.9-.16-1.68-.35-2.35.46-.13.92-.29,1.41-.48.58.81.95,1.78,1.04,2.83h-2.1Z"/>
</svg>