<?xml version="1.0" encoding="UTF-8"?>
<svg id="Capa_1" data-name="Capa 1" xmlns="http://www.w3.org/2000/svg" xmlns:xlink="http://www.w3.org/1999/xlink" viewBox="0 0 44 39">
  <defs>
    <style>
      .cls-1 {
        fill: #fff;
      }

      .cls-2 {
        fill: none;
      }

      .cls-3 {
        fill: currentColor;
      }

      .cls-4 {
        opacity: .15;
      }

      .cls-5 {
        clip-path: url(#clippath);
      }
    </style>
    <clipPath id="clippath">
      <rect class="cls-2" x="-442.6" y="-337.18" width="360" height="591.18"/>
    </clipPath>
  </defs>
  <g id="MyPdeU.tif">
    <path class="cls-3" d="M9.29,32.45c-.56,0-1.14-.03-1.67-.18-1.34-.39-2.31-1.68-2.31-3.09-.01-6.63-.02-13.26,0-19.89,0-1.81,1.48-3.25,3.31-3.29.6-.02,18.03,0,26.15,0,1.72,0,3.03.95,3.44,2.52.1.39.14.82.14,1.23,0,6.33,0,12.66,0,18.99,0,1.9-.91,3.19-2.57,3.6-.36.09-.75.09-1.13.09-4.28,0-21.18.04-25.36.03ZM34.92,13.38c-.22.13-.38.21-.53.3-3.99,2.49-7.99,4.97-11.97,7.48-.43.27-.74.3-1.19.02-3.96-2.5-7.94-4.97-11.92-7.45-.17-.11-.35-.19-.54-.3v15.6h26.14v-15.64ZM34.69,9.46H9.01c.08.07.1.1.13.11,4.13,2.58,8.25,5.16,12.37,7.76.28.18.47.1.71-.05,3.82-2.39,7.64-4.78,11.46-7.17.32-.2.63-.4,1.02-.65Z"/>
  </g>
  <g class="cls-5">
    <g class="cls-4">
      <path class="cls-1" d="M-153.44-267.37h0c-63.85,86.79-122.08,90.81-179.66,46.42-.66-.53-1.33-1.05-2.01-1.56,0,0,0,0-.01-.01h0c-4.38-3.26-9.25-6.03-14.54-8.18-33.73-13.73-72.21,2.48-85.94,36.21-10.11,24.84-3.98,52.26,13.43,70.47h0c37.66,43.62,74.69,111.79-29.64,199.39h0c-20.02,14.66-36.36,34.87-46.4,59.54-28.88,70.95,5.22,151.87,76.17,180.75,70.95,28.88,151.87-5.22,180.75-76.17,24.83-60.99,3.11-129.35-48.54-165.68h0c-49.99-36.64-73.54-83.49-71.96-116.7,1.48-31.01,16.35-61.73,32.02-78.29,1.14-1.06,2.25-2.16,3.33-3.3,0,0,.01-.01.02-.02,16.83-15.51,90.59-68.06,175.82,46.04h0c17.1,23.16,40.59,42.06,69.21,53.71C1.54,9,96.13-30.85,129.89-113.78c33.76-82.92-6.1-177.51-89.02-211.27-71.65-29.17-152-3.37-194.3,57.68Z"/>
    </g>
  </g>
</svg>