<?xml version="1.0" encoding="UTF-8"?>
<svg id="Capa_1" data-name="Capa 1" xmlns="http://www.w3.org/2000/svg" xmlns:xlink="http://www.w3.org/1999/xlink" viewBox="0 0 18 19">
  <defs>
    <style>
      .cls-1 {
        fill: #fff;
      }

      .cls-2 {
        fill: none;
      }

      .cls-3 {
        fill: url(#Degradado_sin_nombre_4);
      }

      .cls-4 {
        opacity: .15;
      }

      .cls-5 {
        clip-path: url(#clippath);
      }
    </style>
    <linearGradient id="Degradado_sin_nombre_4" data-name="Degradado sin nombre 4" x1="1.84" y1="9.6" x2="16.36" y2="9.6" gradientUnits="userSpaceOnUse">
      <stop offset="0" stop-color="#464b4d"/>
      <stop offset="1" stop-color="#1a1d1e"/>
    </linearGradient>
    <clipPath id="clippath">
      <rect class="cls-2" x="-494.6" y="-442.18" width="360" height="591.18"/>
    </clipPath>
  </defs>
  <path class="cls-3" d="M16.36,9.61c0,1.44,0,2.44-.04,3-.06,1.3-.45,2.32-1.18,3.04-.71.72-1.75,1.11-3.05,1.17-.56.03-1.55.04-2.99.04s-2.45-.01-3-.04c-1.32-.06-2.34-.45-3.06-1.17-.72-.72-1.1-1.74-1.16-3.04-.04-.56-.05-1.56-.05-3s0-2.46.05-3.01c.06-1.32.45-2.33,1.16-3.05.72-.72,1.74-1.11,3.06-1.17.55-.03,1.54-.05,3-.05s2.44.02,2.99.05c1.3.06,2.33.45,3.05,1.17.72.72,1.11,1.74,1.18,3.05.03.55.04,1.55.04,3.01ZM9.83,3.64c-.44,0-.69,0-.72,0-.05,0-.29,0-.73,0h-.99c-.23,0-.53.02-.91.03-.39.01-.72.05-.98.09-.28.06-.49.11-.68.18-.32.12-.58.31-.82.54-.25.24-.43.52-.56.83-.07.19-.12.41-.18.68-.04.27-.07.59-.09.97,0,.38-.03.69-.03.91v3.45c0,.22.02.53.03.92.02.37.05.7.09.96.06.27.11.49.18.67.13.32.31.6.56.84.24.25.5.42.82.55.19.07.41.13.68.17.26.05.59.08.98.1.37.02.68.03.91.03h3.45c.23,0,.54,0,.9-.03.39-.01.72-.05.98-.1.26-.04.49-.11.68-.17.32-.13.59-.31.82-.55.25-.24.43-.52.54-.84.08-.18.14-.4.18-.67.05-.27.07-.6.1-.96,0-.39.02-.7.02-.92,0-.23,0-.57,0-1v-1.45c0-.44,0-.77,0-1,0-.22-.02-.53-.02-.91-.03-.39-.06-.7-.1-.97-.04-.27-.1-.49-.18-.68-.12-.31-.3-.59-.54-.83-.24-.23-.51-.42-.82-.54-.19-.08-.42-.13-.68-.18-.26-.04-.59-.07-.98-.09-.37-.01-.67-.03-.9-.03h-1ZM11.73,6.96c.72.73,1.09,1.61,1.09,2.65s-.37,1.91-1.09,2.64c-.72.72-1.61,1.08-2.63,1.08s-1.93-.36-2.64-1.08c-.73-.73-1.09-1.61-1.09-2.64s.36-1.92,1.09-2.65c.72-.72,1.6-1.08,2.64-1.08s1.91.37,2.63,1.08ZM10.81,11.32c.47-.48.71-1.05.71-1.71s-.24-1.24-.71-1.73c-.48-.46-1.05-.7-1.71-.7s-1.25.24-1.71.7c-.48.49-.72,1.05-.72,1.73s.23,1.23.72,1.71c.47.47,1.04.71,1.71.71s1.23-.24,1.71-.71ZM13.6,5.11c.16.17.25.37.25.62s-.09.44-.25.61c-.17.17-.38.26-.61.26s-.44-.09-.62-.26c-.17-.17-.26-.38-.26-.61s.09-.44.26-.62c.18-.17.38-.26.62-.26s.44.09.61.26Z"/>
  <g class="cls-5">
    <g class="cls-4">
      <path class="cls-1" d="M-205.44-372.37h0c-63.85,86.79-122.08,90.81-179.66,46.42-.66-.53-1.33-1.05-2.01-1.56,0,0,0,0-.01-.01h0c-4.38-3.26-9.25-6.03-14.54-8.18-33.73-13.73-72.21,2.48-85.94,36.21-10.11,24.84-3.98,52.26,13.43,70.47h0c37.66,43.62,74.69,111.79-29.64,199.39h0c-20.02,14.66-36.36,34.87-46.4,59.54-28.88,70.95,5.22,151.87,76.17,180.75,70.95,28.88,151.87-5.22,180.75-76.17,24.83-60.99,3.11-129.35-48.54-165.68h0c-49.99-36.64-73.54-83.49-71.96-116.7,1.48-31.01,16.35-61.73,32.02-78.29,1.14-1.06,2.25-2.16,3.33-3.3,0,0,.01-.01.02-.02,16.83-15.51,90.59-68.06,175.82,46.04h0c17.1,23.16,40.59,42.06,69.21,53.71,82.92,33.76,177.51-6.1,211.27-89.02,33.76-82.92-6.1-177.51-89.02-211.27-71.65-29.17-152-3.37-194.3,57.68Z"/>
    </g>
  </g>
</svg>