<?xml version="1.0" encoding="UTF-8"?>
<svg id="Capa_1" data-name="Capa 1" xmlns="http://www.w3.org/2000/svg" xmlns:xlink="http://www.w3.org/1999/xlink" viewBox="0 0 17 17">
  <defs>
    <style>
      .cls-1 {
        fill: url(#Degradado_sin_nombre_4);
        fill-rule: evenodd;
      }

      .cls-2 {
        filter: url(#drop-shadow-1);
      }
    </style>
    <filter id="drop-shadow-1" x="1.89" y="1.13" width="13.12" height="13.23" filterUnits="userSpaceOnUse">
      <feOffset dx="1.97" dy="1.97"/>
      <feGaussianBlur result="blur" stdDeviation="1.41"/>
      <feFlood flood-color="#000" flood-opacity=".25"/>
      <feComposite in2="blur" operator="in"/>
      <feComposite in="SourceGraphic"/>
    </filter>
    <linearGradient id="Degradado_sin_nombre_4" data-name="Degradado sin nombre 4" x1="1.89" y1="7.74" x2="15.02" y2="7.74" gradientUnits="userSpaceOnUse">
      <stop offset="0" stop-color="#464b4d"/>
      <stop offset="1" stop-color="#1a1d1e"/>
    </linearGradient>
  </defs>
  <g class="cls-2">
    <path class="cls-1" d="M11.59,9.03c-.16-.09-.95-.52-1.1-.58-.15-.06-.26-.09-.37.07-.12.16-.44.52-.54.62-.1.11-.2.12-.36.03-.16-.09-.68-.28-1.29-.87-.47-.45-.78-1-.87-1.17-.09-.17,0-.25.08-.33.08-.07.17-.19.26-.28.09-.09.12-.16.17-.27.06-.11.04-.2,0-.29-.04-.08-.34-.91-.46-1.24-.12-.33-.26-.28-.36-.29-.1,0-.2-.02-.31-.03-.11,0-.29.03-.45.19-.16.16-.6.54-.63,1.35-.03.81.53,1.61.61,1.73.08.11,1.07,1.87,2.72,2.59,1.65.72,1.66.5,1.96.49.3-.02.99-.36,1.14-.74.15-.38.16-.71.12-.78-.04-.07-.15-.12-.31-.2h0ZM8.57,12.93c-1.09,0-2.1-.33-2.95-.89l-2.06.66.67-1.99c-.64-.88-1.02-1.97-1.02-3.14,0-2.96,2.41-5.36,5.36-5.36s5.36,2.41,5.36,5.36-2.41,5.36-5.36,5.36h0ZM8.57,1.13c-3.56,0-6.44,2.88-6.44,6.44,0,1.22.34,2.36.92,3.33l-1.16,3.46,3.57-1.14c.92.51,1.98.8,3.11.8,3.56,0,6.44-2.88,6.44-6.44S12.13,1.13,8.57,1.13h0Z"/>
  </g>
</svg>