<?xml version="1.0" encoding="UTF-8"?>
<svg id="Capa_1" data-name="Capa 1" xmlns="http://www.w3.org/2000/svg" xmlns:xlink="http://www.w3.org/1999/xlink" viewBox="0 0 48 48">
  <defs>
    <style>
      .cls-1 {
        fill: url(#Degradado_sin_nombre_4);
      }
    </style>
    <linearGradient id="Degradado_sin_nombre_4" data-name="Degradado sin nombre 4" x1="8.48" y1="10.44" x2="39.78" y2="42.03" gradientUnits="userSpaceOnUse">
      <stop offset="0" stop-color="#464b4d"/>
      <stop offset="1" stop-color="#1a1d1e"/>
    </linearGradient>
  </defs>
  <path class="cls-1" d="M41.39,23.29v1.96l-.33,2.43c-.39,2.21-1.26,4.3-2.3,6.27l2.62,7.82v.45c-.24.67-.59,1.07-1.28,1.28h-.45l-7.82-2.62c-1.93,1.03-3.97,1.87-6.13,2.28l-2.42.34c-.77-.03-1.57.05-2.34,0-14.42-.84-23.05-17.04-15.31-29.45C15.67-2.04,40.32,4.37,41.39,23.29ZM37.47,39.58l-1.89-5.92c.28-1.03.96-1.91,1.4-2.91,5.16-11.79-4.65-24.51-17.34-22.68-10.44,1.5-16.84,12.9-12.49,22.57l4.64-4.57c-1.19-7.07,4.76-13.22,11.9-12.19,1.59.23,4.88,1.11,3.34,3.3l-4.86,4.93,2.06,2,5.03-5c1.66-.9,2.33.59,2.75,1.92,2.18,6.83-3.24,13.94-10.41,13.57-.32-.02-1.16-.22-1.39-.11l-4.6,4.6c4.11,1.9,9.04,1.79,13.15-.05.7-.31,2.25-1.36,2.88-1.35l5.85,1.89ZM22.8,16.81c-.41-.06-1.07,0-1.51,0-.4,0-1.41.3-1.81.45-3.05,1.15-5.03,4.24-4.79,7.5.06.8.5,1.64.14,2.4l-6.16,6.27c1.12,1.59,2.48,3.03,4.11,4.1l6.21-6.05c.83-.46,1.78.06,2.67.11,4.54.26,8.39-3.86,7.73-8.37l-4.22,4.19c-.74.58-1.4.5-2.11-.08-1.02-.82-3.33-3.13-4.15-4.15-.46-.57-.61-1.16-.25-1.84l4.33-4.42s-.17-.11-.19-.11Z"/>
</svg>