<?xml version="1.0" encoding="UTF-8"?>
<svg id="Capa_1" data-name="Capa 1" xmlns="http://www.w3.org/2000/svg" xmlns:xlink="http://www.w3.org/1999/xlink" viewBox="0 0 129.02 119.66">
  <defs>
    <style>
      .cls-1 {
        fill: #fff;
      }

      .cls-2 {
        fill: url(#Nueva_muestra_de_degradado_2);
      }
    </style>
    <linearGradient id="Nueva_muestra_de_degradado_2" data-name="Nueva muestra de degradado 2" x1="19.32" y1="29.51" x2="105.1" y2="79.03" gradientUnits="userSpaceOnUse">
      <stop offset="0" stop-color="#b1ca07"/>
      <stop offset="1" stop-color="#00988a"/>
    </linearGradient>
  </defs>
  <g>
    <path class="cls-1" d="M60.57,108.15c-19.01,0-36.89-10.15-46.68-26.48-6.89-11.5-8.95-24.3-5.79-36.04,2.91-10.84,10.1-19.9,20.25-25.52,10.36-5.74,28.22-9.45,45.49-9.45,12.45,0,34.71,1.98,43.95,15.22,4.86,6.96,5.79,16.6,2.71,27.87-5.45,19.95-23.13,42.75-38.6,49.81-6.68,3.04-13.85,4.59-21.32,4.59h0Z"/>
    <g>
      <path class="cls-1" d="M105.18,51.72c-.27,0-.52-.03-.77-.08-1.79-.41-2.97-1.99-2.85-3.78.33-5.04-.67-8.95-2.95-11.63-1.74-2.04-4.6-3.54-8.51-4.46-1.76-.39-2.97-2.07-2.77-3.91.18-1.79,1.69-3.19,3.5-3.24.44-.01.86-.02,1.29-.02,7.06,0,12.17,1.57,15.19,4.66,2.98,3.05,5.62,9.03,1.25,20.15-.55,1.4-1.88,2.3-3.37,2.3Z"/>
      <path class="cls-1" d="M99.26,52.36l-.27-.07c-1.64-.32-2.88-1.75-2.93-3.44-.11-3.62-1-6.52-2.63-8.61-1.21-1.54-3.07-2.77-5.53-3.66-1.67-.56-2.69-2.35-2.33-4.13.38-1.71,1.87-2.9,3.56-2.9h.23c5.27.38,9.3,2.02,11.7,4.75,3.13,3.58,3.87,8.9,2.14,15.37-.45,1.6-1.89,2.69-3.5,2.69h-.43Z"/>
      <path class="cls-1" d="M45.88,86.54c-7.35,0-13.34-2.51-17.8-7.46-4.33-4.81-6.53-11.25-6.53-19.15s2.34-14.7,6.96-19.65c4.7-5.05,10.73-7.61,17.93-7.61,3.78,0,7.02.48,9.61,1.44,2.58.95,4.49,1.94,5.86,3.02,2.63,2.09,3.18,4.44,3.18,6.04,0,1.92-.66,3.77-1.92,5.37-1.5,1.9-3.5,2.91-5.78,2.91-1.43,0-2.91-.41-4.41-1.21-2.28-1.16-4.42-1.76-6.32-1.76-2.64,0-4.61.85-6.2,2.67-1.7,1.96-2.57,4.87-2.57,8.66s.81,6.6,2.41,8.43c1.48,1.7,3.54,2.49,6.49,2.49.95,0,1.85-.11,2.69-.33v-1.98h-2.56c-2.26,0-4.11-.63-5.5-1.88-1.52-1.36-2.3-3.42-2.3-6.11,0-3.05,1.19-4.84,2.19-5.8,1.39-1.34,3.32-2.03,5.73-2.03h10.67c4.85,0,8.1,3.14,8.1,7.82v12.85c0,2.79-.83,5.19-2.46,7.11-1.45,1.71-3.66,3.11-6.96,4.38-3.01,1.17-6.55,1.76-10.51,1.76Z"/>
      <path class="cls-1" d="M79.54,72.12c-5.83,0-10.56-1.82-14.04-5.4-3.44-3.55-5.19-8.22-5.19-13.88s1.75-10.3,5.21-13.89c3.5-3.63,8.22-5.47,14.02-5.47s10.47,1.86,13.96,5.53c3.43,3.6,5.18,8.26,5.18,13.83s-1.74,10.27-5.18,13.84c-3.49,3.61-8.18,5.44-13.96,5.44ZM76.05,48.81c-.77.83-1.16,2.19-1.16,4.03s.37,3.32,1.05,4.02c.64.66,1.85.99,3.6.99,2.14,0,2.95-.63,3.38-1.11.8-.88,1.21-2.2,1.21-3.9s-.41-3-1.26-3.95c-.48-.54-1.3-1.17-3.33-1.17-2.32,0-3.12.69-3.43,1l-.07.08Z"/>
      <g>
        <path class="cls-1" d="M73.82,85.47c-1.13,0-2.08-.33-2.81-.97-.04-.03-.07-.06-.1-.1-.07.06-.14.12-.21.18-.5.4-1.37.89-2.68.89s-2.23-.51-2.73-.94c-.85-.72-1.31-1.77-1.31-2.95v-7.96c0-1.18.46-2.23,1.31-2.94.72-.61,1.64-.91,2.75-.91.61,0,1.16.09,1.65.28.63-.21,1.32-.31,2.04-.31,1.81,0,3.37.67,4.51,1.94.74.82,1.62,2.28,1.62,4.56v5.35c0,1.19-.48,2.24-1.34,2.97-.5.42-1.37.92-2.7.92Z"/>
        <path class="cls-1" d="M81.12,85.51c-2.8,0-4.52-1.24-5.47-2.28-1.31-1.44-1.98-3.3-1.98-5.53s.63-4.1,1.87-5.56c1.34-1.57,3.23-2.41,5.45-2.41,2.04,0,3.8.74,5.1,2.15,1.24,1.34,1.89,3.12,1.89,5.14,0,.94-.2,1.76-.6,2.44.14.41.22.83.22,1.26,0,.94-.35,2.69-2.73,3.9-1.14.58-2.4.88-3.75.88Z"/>
        <path class="cls-1" d="M89.5,85.47c-1.15,0-2.11-.34-2.84-1.02-.78-.72-1.21-1.76-1.21-2.92v-3.84c-.94-.25-1.52-.77-1.83-1.12-.43-.49-.97-1.37-.97-2.73s.56-2.3,1.02-2.8c.5-.54,1.42-1.2,2.93-1.2h5.87c1.48,0,2.39.64,2.89,1.17.68.72,1.02,1.67,1.02,2.83s-.37,2.17-1.09,2.9c-.35.35-.9.75-1.7.96v3.83c0,1.22-.47,2.29-1.34,3.02-.74.62-1.66.93-2.76.93Z"/>
      </g>
    </g>
  </g>
  <g>
    <path class="cls-2" d="M29.82,22.78c-20.16,11.17-26.23,35.76-13.31,57.32,13.42,22.39,41.56,30.97,64.12,20.69,20.97-9.56,49.06-52.52,34.66-73.16-13.57-19.46-65.3-16.02-85.46-4.85Z"/>
    <g>
      <path class="cls-1" d="M105.12,31.4c-2.43-2.48-6.8-3.74-13.01-3.74-.4,0-.79,0-1.19.01-.29,0-.53.23-.56.52-.03.28.16.55.44.61,4.56,1.07,7.97,2.9,10.14,5.45,2.82,3.3,4.05,7.95,3.67,13.81-.02.28.17.53.45.6.04,0,.08.01.13.01.23,0,.44-.14.53-.36,2.98-7.6,2.78-13.45-.6-16.91Z"/>
      <path class="cls-1" d="M89.16,32.61c-.28-.02-.54.17-.6.45-.06.28.1.57.37.66,3.01,1.08,5.34,2.64,6.91,4.65,2.04,2.61,3.15,6.11,3.28,10.4,0,.28.23.52.51.55.02,0,.04,0,.06,0,.26,0,.48-.17.55-.42,1.01-3.79,1.58-9.06-1.49-12.57-1.85-2.11-5.17-3.4-9.59-3.71Z"/>
      <path class="cls-1" d="M57.7,55.66h-10.67c-1.61,0-2.8.38-3.62,1.18-.83.8-1.25,2.01-1.25,3.6,0,1.81.42,3.06,1.29,3.84.81.73,1.97,1.1,3.46,1.1h5.61v6.7c0,.31-.06.44-.06.44-.01.01-.36.29-1.86.74-1.19.35-2.47.53-3.81.53-3.83,0-6.71-1.16-8.78-3.53-2.1-2.4-3.16-5.91-3.16-10.44s1.12-8.13,3.32-10.66c2.18-2.5,4.96-3.72,8.5-3.72,2.38,0,5,.72,7.76,2.13,2.52,1.35,4.76,1.12,6.36-.9.84-1.06,1.27-2.23,1.27-3.48,0-1.36-.68-2.59-2.03-3.66-1.11-.88-2.74-1.71-5.01-2.55-2.26-.83-5.14-1.25-8.56-1.25-6.32,0-11.61,2.23-15.7,6.63-4.07,4.37-6.14,10.28-6.14,17.57s1.93,12.88,5.74,17.11c3.85,4.28,9.08,6.45,15.53,6.45,3.58,0,6.75-.52,9.41-1.55,2.76-1.07,4.64-2.22,5.73-3.51,1.15-1.35,1.73-3.08,1.73-5.13v-12.85c0-2.99-1.89-4.77-5.05-4.77Z"/>
      <path class="cls-1" d="M79.54,36.53c-4.94,0-8.92,1.53-11.82,4.54-2.89,3-4.36,6.96-4.36,11.77s1.46,8.79,4.33,11.75c2.88,2.97,6.87,4.48,11.85,4.48s8.87-1.52,11.76-4.5c2.87-2.98,4.32-6.92,4.32-11.72s-1.46-8.71-4.34-11.73c-2.89-3.04-6.84-4.58-11.75-4.58ZM79.54,60.9c-2.65,0-4.54-.63-5.79-1.92-1.27-1.31-1.91-3.38-1.91-6.14s.66-4.69,1.97-6.11h0c1.27-1.39,3.15-2.06,5.74-2.06s4.29.71,5.6,2.18c1.35,1.52,2.04,3.53,2.04,5.98s-.67,4.49-2,5.95c-1.28,1.42-3.13,2.11-5.64,2.11Z"/>
      <g>
        <path class="cls-1" d="M71.73,72.78c-1.18,0-2.08.48-2.68,1.44v-.61c0-.27-.08-.48-.23-.61-.15-.13-.41-.2-.78-.2s-.63.06-.78.19c-.15.13-.23.33-.23.61v7.96c0,.28.08.49.25.63.16.14.41.21.74.21s.59-.07.77-.21.26-.35.26-.63v-4.32c0-.84.18-1.48.55-1.93.37-.45.87-.67,1.53-.67.54,0,.96.17,1.25.51.29.34.44.8.44,1.39v5.02c0,.29.08.5.23.63.15.14.42.21.78.21.33,0,.57-.07.74-.21s.25-.35.25-.63v-5.35c0-1.06-.28-1.9-.84-2.52s-1.31-.93-2.25-.93Z"/>
        <path class="cls-1" d="M81,72.78c-1.33,0-2.37.45-3.13,1.34-.76.89-1.14,2.08-1.14,3.57s.39,2.61,1.18,3.47c.78.86,1.86,1.29,3.22,1.29.87,0,1.66-.18,2.37-.54.71-.36,1.06-.76,1.06-1.19,0-.21-.09-.41-.27-.61-.18-.2-.38-.3-.6-.3-.17,0-.37.07-.58.2-.39.24-.7.41-.95.49-.25.09-.58.13-.99.13-.67,0-1.2-.19-1.6-.56-.4-.37-.65-.94-.77-1.68h4.98c.4,0,.69-.11.88-.33.19-.22.28-.57.28-1.05,0-1.27-.36-2.29-1.08-3.07-.72-.78-1.67-1.17-2.86-1.17ZM78.82,76.63c.11-.64.35-1.13.74-1.49s.86-.53,1.44-.53c.53,0,.98.18,1.32.55.35.37.55.86.59,1.47h-4.09Z"/>
        <path class="cls-1" d="M92.48,72.88h-5.87c-.33,0-.56.07-.7.22-.14.15-.21.39-.21.73,0,.32.07.56.21.71.14.15.37.23.7.23h1.9v6.75c0,.32.08.54.23.68.15.14.41.21.77.21s.63-.07.79-.21.25-.37.25-.68v-6.75h1.93c.31,0,.53-.07.66-.2.13-.13.2-.38.2-.74s-.07-.6-.2-.74c-.13-.14-.35-.21-.67-.21Z"/>
      </g>
    </g>
  </g>
</svg>