<?xml version="1.0" encoding="UTF-8"?>
<svg id="Capa_1" data-name="Capa 1" xmlns="http://www.w3.org/2000/svg" xmlns:xlink="http://www.w3.org/1999/xlink" viewBox="0 0 25 25">
  <defs>
    <style>
      .cls-1 {
        fill: #fff;
      }

      .cls-2 {
        fill: none;
      }

      .cls-3 {
        opacity: .15;
      }

      .cls-4 {
        clip-path: url(#clippath);
      }
    </style>
  </defs>
  <g>
    <path d="M12.71,22.02c-.16-.02-.51-.15-.66-.23-.65-.33-1.11-1.06-1.09-1.8h4.06c.02.82-.53,1.61-1.3,1.9-.09.04-.36.12-.45.13-.13.02-.43.02-.56,0Z"/>
    <path d="M3.84,17.95l3.02-2.03.05-6.75c.26-2.32,1.84-4.35,4.05-5.11-.07-.95.36-1.84,1.27-2.21,1.5-.61,2.99.64,2.8,2.21,2.21.75,3.8,2.8,4.05,5.11l.05,6.75,3.02,2.03v1.01H3.84v-1.01Z"/>
  </g>
  <g class="cls-4">
    <g class="cls-3">
      <path class="cls-1" d="M-156.44-201.37h0c-63.85,86.79-122.08,90.81-179.66,46.42-.66-.53-1.33-1.05-2.01-1.56,0,0,0,0-.01-.01h0c-4.38-3.26-9.25-6.03-14.54-8.18-33.73-13.73-72.21,2.48-85.94,36.21-10.11,24.84-3.98,52.26,13.43,70.47h0c37.66,43.62,74.69,111.79-29.64,199.39h0c-20.02,14.66-36.36,34.87-46.4,59.54-28.88,70.95,5.22,151.87,76.17,180.75,70.95,28.88,151.87-5.22,180.75-76.17,24.83-60.99,3.11-129.35-48.54-165.68h0c-49.99-36.64-73.54-83.49-71.96-116.7,1.48-31.01,16.35-61.73,32.02-78.29,1.14-1.06,2.25-2.16,3.33-3.3,0,0,.01-.01.02-.02,16.83-15.51,90.59-68.06,175.82,46.04h0c17.1,23.16,40.59,42.06,69.21,53.71C-1.46,75,93.13,35.15,126.89-47.78c33.76-82.92-6.1-177.51-89.02-211.27-71.65-29.17-152-3.37-194.3,57.68Z"/>
    </g>
  </g>
</svg>