<?xml version="1.0" encoding="UTF-8"?>
<svg id="Capa_1" data-name="Capa 1" xmlns="http://www.w3.org/2000/svg" xmlns:xlink="http://www.w3.org/1999/xlink" viewBox="0 0 53 46">
  <defs>
    <style>

      .cls-2 {
        fill: currentColor;
      }

      .cls-3 {
        fill: none;
      }

      .cls-4 {
        fill: currentColor;
      }

      .cls-5 {
        opacity: .15;
      }

      .cls-6 {
        clip-path: url(#clippath);
      }
    </style>
    <clipPath id="clippath">
      <rect class="cls-3" x="-502.6" y="-332.18" width="360" height="591.18"/>
    </clipPath>
  </defs>
  <g>
    <path class="cls-4" d="M36.24,3.36c1.65.34,2.78,1.53,2.91,3.24l.04,9.42c3.92,4.27,8.89,6.99,8.07,13.66-.45,3.63-1.66,7.4-2.22,11.04-.13.37-.34.58-.71.71l-22.05.07c-1.63-.06-2.99-1.29-3.22-2.89l-.02-14.02c-7.17-.72-11.56-8.28-8.63-14.92,1.52-3.44,5.07-6.02,8.85-6.3h16.98ZM19.4,5.62c-5.99.51-9.52,7.11-6.65,12.42,3,5.55,11.01,5.9,14.44.59,3.82-5.91-.81-13.6-7.79-13ZM36.91,21.09V6.53c0-.3-.64-.93-.93-.93h-9.27c2.88,2.37,4.44,5.88,4.02,9.64-.55,4.86-4.57,8.89-9.46,9.35v9.83h11.99c.6-1.56,1.7-2.86,2.98-3.91-1.11-1.17-2.29-2.29-3.39-3.46-.79-.85-1.75-1.73-1.89-2.95-.39-3.34,3.5-5.24,5.95-3.01ZM43.09,39.26l2.01-10.46c.12-2.04-.53-3.98-1.86-5.52-1.22-1.41-2.81-2.69-4.1-4.06v4.21c1.1,1.17,2.37,2.23,3.37,3.48.38,1.14-.9,1.99-1.81,1.21l-5.63-5.61c-1.4-.59-2.48.79-1.51,2.04,1.41,1.82,3.71,3.52,5.17,5.33.3.38.5.69.37,1.19-.17.65-.7.68-1.17.99-2.43,1.65-3.31,4.37-3.56,7.2h8.71ZM32.52,36.65h-11.25v1.75c0,.22.46.73.7.79l10.12.08.42-2.61Z"/>
    <path class="cls-2" d="M21.29,9.01c.05.06.65.29.82.4,1.37.9.62,2.55-.77,2.18-.25-.07-.36-.28-.53-.37-.55-.3-1.62-.04-1.39.72.12.41,2.16,1,2.64,1.3,1.97,1.24,1.67,3.99-.13,5.26-.15.11-.5.21-.59.3-.26.28-.07,1.18-.95,1.36-.85.18-1.34-.44-1.43-1.22-.62-.08-1.86-.62-2-1.28s.26-1.4.99-1.44c.78-.04,1.21.84,2.4.55.6-.15,1.08-.93.69-1.48-.2-.28-1.9-.83-2.39-1.11-1.75-1.01-2.09-3.23-.56-4.58.18-.16.87-.48.9-.52.06-.09.03-.39.09-.58.27-.83,1.53-.93,1.97-.15.1.18.15.54.23.63Z"/>
  </g>
  <g class="cls-6">
    <g class="cls-5">
      <path class="cls-1" d="M-213.44-262.37h0c-63.85,86.79-122.08,90.81-179.66,46.42-.66-.53-1.33-1.05-2.01-1.56,0,0,0,0-.01-.01h0c-4.38-3.26-9.25-6.03-14.54-8.18-33.73-13.73-72.21,2.48-85.94,36.21-10.11,24.84-3.98,52.26,13.43,70.47h0c37.66,43.62,74.69,111.79-29.64,199.39h0c-20.02,14.66-36.36,34.87-46.4,59.54-28.88,70.95,5.22,151.87,76.17,180.75,70.95,28.88,151.87-5.22,180.75-76.17,24.83-60.99,3.11-129.35-48.54-165.68h0c-49.99-36.64-73.54-83.49-71.96-116.7,1.48-31.01,16.35-61.73,32.02-78.29,1.14-1.06,2.25-2.16,3.33-3.3,0,0,.01-.01.02-.02,16.83-15.51,90.59-68.06,175.82,46.04h0c17.1,23.16,40.59,42.06,69.21,53.71C-58.46,14,36.13-25.85,69.89-108.78c33.76-82.92-6.1-177.51-89.02-211.27-71.65-29.17-152-3.37-194.3,57.68Z"/>
    </g>
  </g>
</svg>