<?xml version="1.0" encoding="UTF-8"?>
<svg id="Capa_1" data-name="Capa 1" xmlns="http://www.w3.org/2000/svg" viewBox="0 0 57 50">
  <path d="M50.53,20.88c-.22.46-.72,1.06-1.28,1.06h-18.48v-5.64h-5.64v5.64H6.65c-.52,0-1.16-.62-1.26-1.12-.15-.75-.1-3.98-.01-4.82s.65-1.76,1.43-2.19c.11-.06.76-.34.81-.34h9.48c-1.52-1.12-2.74-2.3-3.13-4.23-1.24-6.07,6.36-9.55,10.32-4.85,1.18,1.39,3.57,5.77,3.57,7.54v1.54h.18v-1.54c0-1.78,2.39-6.14,3.57-7.54,3.97-4.7,11.56-1.21,10.32,4.85-.39,1.93-1.61,3.11-3.13,4.23h9.48c.05,0,.7.28.81.34.81.44,1.2,1.2,1.44,2.04v5.03ZM17.57,5.83c-1.19,1.17-1.18,2.99-.12,4.25,1.13,1.33,5.28,3.42,7.01,3.38.81-.02.65-.71.55-1.33-.3-1.76-2.28-5.93-3.89-6.79-1.13-.61-2.64-.42-3.56.49ZM38.33,5.83c-1.07-1.06-2.85-1.07-4.02-.16-1.37,1.07-3.58,5.5-3.5,7.21.02.44.2.56.63.57,1.73.04,5.88-2.04,7.01-3.38,1.07-1.26,1.07-3.07-.12-4.25Z"/>
  <path d="M25.13,24.76v19.75h-14.24c-1.09,0-2.69-1.3-2.69-2.43v-17.33h16.93Z"/>
  <path d="M47.7,24.76v17.33c0,1.12-1.6,2.43-2.69,2.43h-14.24v-19.75h16.93Z"/>
</svg>