<?xml version="1.0" encoding="UTF-8"?>
<svg id="Capa_1" data-name="Capa 1" xmlns="http://www.w3.org/2000/svg" xmlns:xlink="http://www.w3.org/1999/xlink" viewBox="0 0 14 18">
  <defs>
    <linearGradient id="Degradado_sin_nombre_4" data-name="Degradado sin nombre 4" x1="2.81" y1="8.74" x2="9.87" y2="8.74" gradientUnits="userSpaceOnUse">
      <stop offset="0" stop-color="#464b4d"/>
      <stop offset="1" stop-color="#1a1d1e"/>
    </linearGradient>
    <clipPath id="clippath">
      <rect class="cls-2" x="-545.6" y="-443.18" width="360" height="591.18"/>
    </clipPath>
  </defs>
  <path class="cls-3" d="M4.87,9.46h-2.06v-2.43h2.06v-1.92c0-1.02.28-1.8.86-2.37.57-.56,1.33-.84,2.27-.84.77,0,1.39.04,1.87.11v2.16h-1.28c-.48,0-.81.11-.99.32-.14.18-.21.46-.21.86v1.68h2.27l-.32,2.43h-1.95v6.12h-2.51v-6.12Z"/>
  <g class="cls-5">
    <g class="cls-4">
      <path class="cls-1" d="M-256.44-373.37h0c-63.85,86.79-122.08,90.81-179.66,46.42-.66-.53-1.33-1.05-2.01-1.56,0,0,0,0-.01-.01h0c-4.38-3.26-9.25-6.03-14.54-8.18-33.73-13.73-72.21,2.48-85.94,36.21-10.11,24.84-3.98,52.26,13.43,70.47h0c37.66,43.62,74.69,111.79-29.64,199.39h0c-20.02,14.66-36.36,34.87-46.4,59.54-28.88,70.95,5.22,151.87,76.17,180.75,70.95,28.88,151.87-5.22,180.75-76.17,24.83-60.99,3.11-129.35-48.54-165.68h0c-49.99-36.64-73.54-83.49-71.96-116.7,1.48-31.01,16.35-61.73,32.02-78.29,1.14-1.06,2.25-2.16,3.33-3.3,0,0,.01-.01.02-.02,16.83-15.51,90.59-68.06,175.82,46.04h0c17.1,23.16,40.59,42.06,69.21,53.71C-101.46-97-6.87-136.85,26.89-219.78c33.76-82.92-6.1-177.51-89.02-211.27-71.65-29.17-152-3.37-194.3,57.68Z"/>
    </g>
  </g>
</svg>