<?xml version="1.0" encoding="UTF-8"?>
<svg id="Capa_1" data-name="Capa 1" xmlns="http://www.w3.org/2000/svg" xmlns:xlink="http://www.w3.org/1999/xlink" viewBox="0 0 54 43">
  <defs>
    <style>
      .cls-1 {
        fill: #fff;
      }

      .cls-2 {
        fill: none;
      }

      .cls-3 {
        fill: currentColor;
      }

      .cls-4 {
        opacity: .15;
      }

      .cls-5 {
        clip-path: url(#clippath);
      }
    </style>
    <clipPath id="clippath">
      <rect class="cls-2" x="-572.6" y="-330.18" width="360" height="591.18"/>
    </clipPath>
  </defs>
  <path class="cls-3" d="M35.64,15.92c-.55-.62-1.33-.92-2.37-.92-1.09,0-1.89.29-2.42.87h0c-.55.6-.83,1.47-.83,2.58,0,1.17.27,2.04.81,2.6.53.55,1.33.81,2.45.81s1.84-.29,2.39-.89c.56-.62.84-1.46.84-2.52s-.29-1.89-.86-2.53ZM35.64,15.92c-.55-.62-1.33-.92-2.37-.92-1.09,0-1.89.29-2.42.87h0c-.55.6-.83,1.47-.83,2.58,0,1.17.27,2.04.81,2.6.53.55,1.33.81,2.45.81s1.84-.29,2.39-.89c.56-.62.84-1.46.84-2.52s-.29-1.89-.86-2.53ZM35.64,15.92c-.55-.62-1.33-.92-2.37-.92-1.09,0-1.89.29-2.42.87h0c-.55.6-.83,1.47-.83,2.58,0,1.17.27,2.04.81,2.6.53.55,1.33.81,2.45.81s1.84-.29,2.39-.89c.56-.62.84-1.46.84-2.52s-.29-1.89-.86-2.53ZM35.64,15.92c-.55-.62-1.33-.92-2.37-.92-1.09,0-1.89.29-2.42.87h0c-.55.6-.83,1.47-.83,2.58,0,1.17.27,2.04.81,2.6.53.55,1.33.81,2.45.81s1.84-.29,2.39-.89c.56-.62.84-1.46.84-2.52s-.29-1.89-.86-2.53ZM34.45,27.89c-.15-.16-.33-.23-.56-.23-.24,0-.44.08-.61.23-.16.15-.27.36-.31.63h1.73c-.02-.26-.1-.47-.25-.62ZM35.64,15.92c-.55-.62-1.33-.92-2.37-.92-1.09,0-1.89.29-2.42.87h0c-.55.6-.83,1.47-.83,2.58,0,1.17.27,2.04.81,2.6.53.55,1.33.81,2.45.81s1.84-.29,2.39-.89c.56-.62.84-1.46.84-2.52s-.29-1.89-.86-2.53ZM35.64,15.92c-.55-.62-1.33-.92-2.37-.92-1.09,0-1.89.29-2.42.87h0c-.55.6-.83,1.47-.83,2.58,0,1.17.27,2.04.81,2.6.53.55,1.33.81,2.45.81s1.84-.29,2.39-.89c.56-.62.84-1.46.84-2.52s-.29-1.89-.86-2.53ZM34.45,27.89c-.15-.16-.33-.23-.56-.23-.24,0-.44.08-.61.23-.16.15-.27.36-.31.63h1.73c-.02-.26-.1-.47-.25-.62ZM48.38,7.79C42.64-.43,20.78,1.02,12.25,5.75,3.73,10.46,1.17,20.86,6.63,29.97c5.67,9.46,17.57,13.09,27.1,8.74,8.87-4.04,20.74-22.2,14.65-30.92ZM26.18,27.09c0,.87-.25,1.6-.73,2.17-.46.55-1.25,1.03-2.42,1.49-1.13.43-2.47.66-3.98.66-2.73,0-4.94-.92-6.56-2.72-1.61-1.79-2.43-4.22-2.43-7.23s.87-5.58,2.59-7.43c1.73-1.86,3.97-2.8,6.64-2.8,1.45,0,2.67.18,3.62.53.96.35,1.65.71,2.12,1.08.57.45.86.97.86,1.55,0,.53-.18,1.02-.53,1.47-.67.86-1.62.95-2.69.38-1.17-.6-2.27-.9-3.28-.9-1.5,0-2.67.51-3.59,1.57-.93,1.07-1.4,2.59-1.4,4.51s.45,3.4,1.34,4.41c.88,1.01,2.09,1.49,3.71,1.49.56,0,1.11-.08,1.61-.22.64-.19.78-.31.79-.31,0,0,.03-.06.03-.19v-2.83h-2.37c-.63,0-1.12-.15-1.46-.46-.37-.33-.54-.86-.54-1.62,0-.67.18-1.18.53-1.52.35-.33.85-.5,1.53-.5h4.51c1.34,0,2.14.76,2.14,2.02v5.44ZM31.27,30.6c0,.12-.04.21-.11.27s-.18.09-.31.09c-.16,0-.27-.03-.33-.09-.07-.06-.1-.15-.1-.27v-2.12c0-.25-.06-.44-.18-.59-.13-.14-.3-.22-.53-.22-.28,0-.49.09-.65.28-.15.19-.23.46-.23.81v1.83c0,.12-.04.21-.11.27-.07.06-.18.09-.33.09s-.25-.03-.31-.09c-.07-.06-.1-.15-.1-.27v-3.36c0-.12.03-.2.1-.26.06-.05.17-.08.33-.08s.26.03.33.08c.06.06.1.14.1.26v.26c.25-.41.63-.61,1.13-.61.4,0,.71.13.95.39.24.26.35.62.35,1.06v2.26ZM35.43,29.11c-.08.09-.2.14-.37.14h-2.11c.05.32.16.55.33.71.17.16.39.24.68.24.17,0,.31-.02.42-.05.1-.04.24-.11.4-.21.09-.06.17-.08.25-.08.09,0,.18.04.25.13.08.08.11.17.11.26,0,.18-.15.35-.45.5-.3.15-.63.23-1,.23-.58,0-1.03-.18-1.36-.55-.33-.36-.5-.85-.5-1.47s.16-1.13.48-1.51c.32-.38.76-.57,1.32-.57.5,0,.91.17,1.21.49.3.33.45.76.45,1.3,0,.2-.04.35-.12.44ZM39.02,27.64c-.06.06-.15.09-.28.09h-.82v2.85c0,.13-.03.23-.1.29s-.18.09-.34.09-.26-.03-.33-.09c-.06-.06-.1-.15-.1-.29v-2.85h-.8c-.14,0-.24-.03-.29-.1-.06-.06-.09-.16-.09-.3,0-.14.03-.25.09-.31.06-.06.15-.09.29-.09h2.48c.13,0,.23.03.28.09.05.06.08.16.08.31s-.03.26-.08.31ZM38.24,23.41c-1.22,1.26-2.89,1.9-4.97,1.9s-3.79-.64-5.01-1.89c-1.21-1.25-1.83-2.92-1.83-4.97s.62-3.71,1.84-4.97c1.23-1.27,2.91-1.92,5-1.92s3.74.65,4.97,1.94c1.21,1.28,1.83,2.94,1.83,4.96s-.61,3.7-1.83,4.96ZM42.02,16.78c-.03.11-.13.18-.23.18,0,0-.02,0-.03,0-.12-.01-.21-.11-.22-.23-.05-1.81-.52-3.29-1.39-4.39-.66-.85-1.65-1.51-2.92-1.97-.11-.04-.18-.16-.16-.28.03-.12.14-.2.25-.19,1.87.13,3.27.67,4.06,1.57,1.3,1.49,1.06,3.71.63,5.31ZM44.34,16.53c-.04.1-.13.15-.23.15-.02,0-.04,0-.05,0-.12-.03-.2-.13-.19-.25.16-2.48-.36-4.44-1.55-5.84-.92-1.08-2.36-1.85-4.29-2.3-.12-.03-.2-.14-.18-.26.01-.12.11-.21.23-.22.17,0,.34,0,.5,0,2.62,0,4.47.53,5.5,1.58,1.43,1.46,1.51,3.93.25,7.15ZM33.27,15c-1.09,0-1.89.29-2.42.87h0c-.55.6-.83,1.47-.83,2.58,0,1.17.27,2.04.81,2.6.53.55,1.33.81,2.45.81s1.84-.29,2.39-.89c.56-.62.84-1.46.84-2.52s-.29-1.89-.86-2.53c-.55-.62-1.33-.92-2.37-.92ZM33.89,27.65c-.24,0-.44.08-.61.23-.16.15-.27.36-.31.63h1.73c-.02-.26-.1-.47-.25-.62-.15-.16-.33-.23-.56-.23ZM35.64,15.92c-.55-.62-1.33-.92-2.37-.92-1.09,0-1.89.29-2.42.87h0c-.55.6-.83,1.47-.83,2.58,0,1.17.27,2.04.81,2.6.53.55,1.33.81,2.45.81s1.84-.29,2.39-.89c.56-.62.84-1.46.84-2.52s-.29-1.89-.86-2.53ZM35.64,15.92c-.55-.62-1.33-.92-2.37-.92-1.09,0-1.89.29-2.42.87h0c-.55.6-.83,1.47-.83,2.58,0,1.17.27,2.04.81,2.6.53.55,1.33.81,2.45.81s1.84-.29,2.39-.89c.56-.62.84-1.46.84-2.52s-.29-1.89-.86-2.53ZM35.64,15.92c-.55-.62-1.33-.92-2.37-.92-1.09,0-1.89.29-2.42.87h0c-.55.6-.83,1.47-.83,2.58,0,1.17.27,2.04.81,2.6.53.55,1.33.81,2.45.81s1.84-.29,2.39-.89c.56-.62.84-1.46.84-2.52s-.29-1.89-.86-2.53ZM35.64,15.92c-.55-.62-1.33-.92-2.37-.92-1.09,0-1.89.29-2.42.87h0c-.55.6-.83,1.47-.83,2.58,0,1.17.27,2.04.81,2.6.53.55,1.33.81,2.45.81s1.84-.29,2.39-.89c.56-.62.84-1.46.84-2.52s-.29-1.89-.86-2.53Z"/>
  <g class="cls-5">
    <g class="cls-4">
      <path class="cls-1" d="M-283.44-260.37h0c-63.85,86.79-122.08,90.81-179.66,46.42-.66-.53-1.33-1.05-2.01-1.56,0,0,0,0-.01-.01h0c-4.38-3.26-9.25-6.03-14.54-8.18-33.73-13.73-72.21,2.48-85.94,36.21-10.11,24.84-3.98,52.26,13.43,70.47h0c37.66,43.62,74.69,111.79-29.64,199.39h0c-20.02,14.66-36.36,34.87-46.4,59.54-28.88,70.95,5.22,151.87,76.17,180.75,70.95,28.88,151.87-5.22,180.75-76.17,24.83-60.99,3.11-129.35-48.54-165.68h0c-49.99-36.64-73.54-83.49-71.96-116.7,1.48-31.01,16.35-61.73,32.02-78.29,1.14-1.06,2.25-2.16,3.33-3.3,0,0,.01-.01.02-.02,16.83-15.51,90.59-68.06,175.82,46.04h0c17.1,23.16,40.59,42.06,69.21,53.71C-128.46,16-33.87-23.85-.11-106.78c33.76-82.92-6.1-177.51-89.02-211.27-71.65-29.17-152-3.37-194.3,57.68Z"/>
    </g>
  </g>
</svg>