<?xml version="1.0" encoding="UTF-8"?>
<svg id="Capa_1" data-name="Capa 1" xmlns="http://www.w3.org/2000/svg" xmlns:xlink="http://www.w3.org/1999/xlink" viewBox="0 0 25 25">
  <defs>
    <style>
      .cls-2 {
        fill: none;
      }

      .cls-3 {
        opacity: .15;
      }

      .cls-4 {
        clip-path: url(#clippath);
      }
    </style>
  </defs>
  <g>
    <path d="M12.71,22.02c-.16-.02-.51-.15-.66-.23-.65-.33-1.11-1.06-1.09-1.8h4.06c.02.82-.53,1.61-1.3,1.9-.09.04-.36.12-.45.13-.13.02-.43.02-.56,0Z"/>
    <path d="M3.84,17.95l3.02-2.03.05-6.75c.26-2.32,1.84-4.35,4.05-5.11-.07-.95.36-1.84,1.27-2.21,1.5-.61,2.99.64,2.8,2.21,2.21.75,3.8,2.8,4.05,5.11l.05,6.75,3.02,2.03v1.01H3.84v-1.01Z"/>
  </g>
</svg>